<?xml version="1.0" encoding="utf-8"?>
<!-- Generator: Adobe Illustrator 25.2.1, SVG Export Plug-In . SVG Version: 6.00 Build 0)  -->
<svg version="1.1" id="Layer_1" xmlns="http://www.w3.org/2000/svg" xmlns:xlink="http://www.w3.org/1999/xlink" x="0px" y="0px"
	 viewBox="0 0 400 200" style="enable-background:new 0 0 400 200;" xml:space="preserve">
<style type="text/css">
	.st0{fill:#DB202E;}
	.st1{fill:#231F20;}
</style>
<polyline class="st0" points="39.72,24.2 39.72,46.94 27.39,46.94 27.39,24.34 10,24.34 10,79.28 27.25,79.28 27.25,54.53 
	39.72,54.53 39.72,79.57 56.97,79.57 56.97,24.2 "/>
<path class="st0" d="M89.19,66.79c-0.11,1.3-0.68,5.74-3.13,7.81c-1.88,1.59-4.34,1-5.89-1.33c-1.53-2.31-2.14-4.43-2.02-11.58
	c0.03-1.56,0.03-3.01,0.03-4.35c0.01-4.66,0.01-8.03,0.99-10.18c1.13-2.47,2.35-3.84,3.65-4.09l0.83-0.08
	c2.43,0,3.87,2.34,4.64,4.31c0.44,1.12,0.93,3.41,0.96,6.47C89.3,59.12,89.3,65.46,89.19,66.79 M103.66,48.14
	c-2.98-5.16-6.2-7.22-10.77-9.02c-3.18-1.26-6.89-1.45-8.81-1.45c-0.62,0-1.01,0.02-1.29,0.02c-0.92-0.02-2.29,0.07-4.15,0.4
	c-2.42,0.43-8.85,1.55-13.8,8.18c-5.47,7.31-3.65,16.62-2.97,19.29c1.11,4.33,3.46,7.74,7.62,11.08c4.6,3.69,11.37,4.09,14.06,4.09
	c4.7,0,9.15-0.9,11.92-2.41c4.63-2.51,7.81-6.19,9.44-10.93C107.12,61.01,106.62,53.28,103.66,48.14"/>
<path class="st0" d="M152.36,79.32l-0.02-30.54c-0.1-1.61-0.86-7.05-6.79-9.59c-2.01-0.86-4.16-1.29-6.39-1.29
	c-3.64,0-6.6,1.16-8.04,1.86c-1.72,0.82-3.39,2.25-4.74,4.11v-4.85h-16.25v40.3l16.18,0.01l-0.03-28.92
	c0.07-0.42,1.89-2.4,3.83-3.45c0.69-0.37,1.47-0.56,2.28-0.56c1.36,0,2.4,0.52,2.82,1.04c1.17,1.42,1.17,3,1.17,3.95v27.93"/>
<path class="st0" d="M184.8,55.98h-11.52c-0.01-1.18-0.02-5.19,0.34-7.26c0.43-2.44,1.76-4.36,2.88-5.18
	c1.44-1.04,4.31-0.93,5.61,0.4c1.47,1.51,1.84,2.75,2.1,3.63c0.23,0.75,0.64,3.04,0.61,5.16C184.79,54.65,184.79,55.54,184.8,55.98
	 M198.77,48.48c-3.64-6.98-9.49-10.31-18.96-10.79c-9.1-0.47-17.57,4.04-20.97,10.94c-3.25,6.59-2.6,14.2-1.36,17.7
	c0.97,2.75,2.58,6.33,6.49,9.61c3.91,3.28,8.79,4.88,14.94,4.88c1.47,0,2.99-0.09,4.79-0.27c5.82-0.6,10.7-3.52,13.33-6.04
	c2.83-2.71,2.94-6.72,2.95-6.89l0-0.34l-6.99,0.03l-0.35,0.27l-0.04,0.29c-0.74,4.7-4.76,6.3-8.01,6.81
	c-4.88,0.77-8.49-0.19-10.43-2.8c-0.57-0.76-0.84-2.27-0.84-2.27v-7.73l27.81,0.08l0.1-0.16C201.33,61.59,201.71,54.12,198.77,48.48
	"/>
<path class="st0" d="M325.9,55.98h-11.53c-0.01-1.18-0.02-5.19,0.35-7.26c0.43-2.44,1.76-4.36,2.88-5.18
	c1.44-1.04,4.31-0.92,5.61,0.4c1.47,1.51,1.84,2.76,2.1,3.63c0.23,0.75,0.64,3.04,0.61,5.16C325.89,54.65,325.89,55.54,325.9,55.98
	 M339.87,48.48c-3.65-6.98-9.49-10.31-18.97-10.79c-9.14-0.45-17.57,4.03-20.97,10.94c-3.25,6.6-2.6,14.2-1.37,17.7
	c0.97,2.75,2.57,6.33,6.49,9.61c3.91,3.28,8.79,4.88,14.94,4.88c1.47,0,2.99-0.09,4.79-0.27c5.82-0.61,10.7-3.52,13.33-6.04
	c2.83-2.71,2.94-6.72,2.95-6.89l0-0.34l-6.99-0.01l-0.35,0.27l-0.05,0.28c-0.74,4.73-4.76,6.34-8,6.85
	c-1.08,0.17-2.12,0.26-3.07,0.26c-2.32,0-5.49-0.53-7.36-3.06c-0.57-0.76-0.84-2.27-0.84-2.27v-7.73l27.77,0.08l0.1-0.16
	C342.39,61.58,342.87,54.24,339.87,48.48"/>
<path class="st0" d="M291.48,39.03l-5.72,21.06l-6.41-21.06h-14.07l-5.79,21.39l-6.57-21.34l-21.74-0.05l-7.48,18.27l-7-18.27
	h-17.62l15.85,40.88c0,0-0.01,0.39-0.32,1.45c-0.37,1.3-1.47,4.02-3.26,5.92c-1.1,1.18-2.25,1.44-3.04,1.45
	c0.29-0.34,0.64-0.85,0.91-1.47c0.55-1.3,0.32-3.47-0.55-5.3c-1.09-2.26-3.79-3.39-7.36-2.72c-4.14,0.8-5.62,4.58-5.25,7.76
	c0.46,3.93,3.15,6.37,7.98,7.23c0.91,0.16,1.8,0.25,2.64,0.25c4.03,0,6.69-1.88,8.96-3.91c2.93-2.61,5.24-9.06,5.33-9.32l16-39.51
	l11.45,37.62h13.58l6.06-22.27l6.85,22.27h13.24l11.01-40.34"/>
<rect x="346.31" y="24.22" class="st0" width="15.56" height="55.17"/>
<rect x="365.85" y="24.28" class="st0" width="15.56" height="55.17"/>
<polyline class="st1" points="354.64,176.51 354.17,176.51 351.76,170.65 350.86,176.28 348.31,176.28 350.6,164.38 351.62,164.38 
	354.63,171.62 357.56,164.38 358.58,164.38 360.94,176.28 358.33,176.28 357.46,170.68 355.08,176.51 "/>
<polyline class="st1" points="311.91,176.27 311.91,167.04 309.45,167.04 309.45,164.57 316.86,164.57 316.86,167.04 314.54,167.04 
	314.54,176.27 "/>
<polyline class="st1" points="330.5,176.27 330.5,164.55 337.27,164.55 337.27,166.95 333,166.95 333,168.68 337.08,168.68 
	337.08,171.17 333,171.17 333,173.79 337.27,173.79 337.27,176.27 "/>
<path class="st1" d="M253.26,169.68c-0.78-0.61-1.68-0.82-2.26-1.09c-0.61-0.31-0.76-0.45-0.82-0.9l0.2-0.64
	c0.12-0.12,0.4-0.29,0.83-0.29c0.49,0,0.72,0.17,0.84,0.27l0.12,0.11l0.38,0.59l0.38,0.09l0.32-0.15l0.03-0.02l0.77-0.48l0.43-0.3
	l-0.07-0.66c-0.24-0.39-0.49-0.68-1-1.09c-0.5-0.38-1.22-0.73-2.08-0.73c-1.85,0-3.69,1.23-3.71,3.25c0,0.36,0.06,0.75,0.2,1.14
	c0.58,1.66,2.11,1.85,2.88,2.19c0.71,0.3,1.11,0.46,1.26,0.64c0.2,0.25,0.39,0.62,0.33,1.19c0,0.71-0.63,1.25-1.33,1.25
	c-0.39,0-0.63-0.17-0.86-0.43l-0.25-0.41l-0.2-0.63l-0.29-0.35l-2.03,0.25c-0.23,0.04-0.26,0.3-0.06,1.12
	c0.02,0.19,0.71,2.94,3.82,2.94h0.04c2.23-0.02,3.69-1.95,3.69-3.82C254.81,171.36,254.1,170.33,253.26,169.68"/>
<path class="st1" d="M294.73,169.68c-0.79-0.61-1.68-0.82-2.27-1.09c-0.61-0.31-0.76-0.45-0.82-0.9l0.2-0.64
	c0.12-0.12,0.4-0.29,0.83-0.29c0.49,0,0.72,0.17,0.84,0.27l0.11,0.11l0.39,0.59l0.38,0.09l0.32-0.15l0.03-0.02l0.77-0.48l0.43-0.3
	l-0.07-0.66c-0.23-0.39-0.49-0.68-1-1.09c-0.5-0.38-1.21-0.73-2.08-0.73c-1.85,0-3.69,1.23-3.71,3.25c0,0.36,0.07,0.75,0.2,1.14
	c0.58,1.66,2.11,1.85,2.88,2.19c0.72,0.3,1.11,0.46,1.26,0.64c0.2,0.25,0.39,0.62,0.33,1.19c0,0.71-0.64,1.25-1.33,1.25
	c-0.39,0-0.63-0.17-0.86-0.43l-0.25-0.41l-0.21-0.63l-0.29-0.35l-2.03,0.25c-0.24,0.04-0.26,0.3-0.07,1.12
	c0.02,0.19,0.71,2.94,3.82,2.94h0.04c2.23-0.02,3.69-1.95,3.69-3.82C296.28,171.36,295.56,170.33,294.73,169.68"/>
<path class="st1" d="M378.87,166.89l-0.07-0.66c-0.23-0.39-0.49-0.68-1.01-1.09c-0.5-0.38-1.21-0.73-2.08-0.73
	c-1.85,0-3.69,1.23-3.71,3.25c0,0.37,0.06,0.75,0.19,1.14c0.58,1.66,2.11,1.86,2.88,2.19c0.72,0.3,1.11,0.46,1.26,0.64
	c0.19,0.25,0.38,0.62,0.33,1.19c0,0.71-0.63,1.25-1.33,1.25c-0.39-0.01-0.63-0.17-0.86-0.44l-0.25-0.41l-0.21-0.64l-0.29-0.35
	l-2.03,0.25c-0.24,0.04-0.26,0.3-0.06,1.12c0.02,0.19,0.71,2.94,3.82,2.94h0.04c2.23-0.02,3.69-1.94,3.69-3.81
	c0.01-1.38-0.7-2.41-1.54-3.06c-0.79-0.61-1.68-0.82-2.27-1.09c-0.61-0.31-0.75-0.45-0.81-0.9l0.19-0.63
	c0.13-0.12,0.41-0.29,0.83-0.29c0.49,0,0.72,0.17,0.85,0.27l0.11,0.11l0.38,0.59l0.38,0.1l0.32-0.16"/>
<path class="st1" d="M274.27,164.55h-0.31c-0.11,0-0.15,0-0.33,0.38c0,0-1.1,1.96-1.94,3.45c-0.84-1.49-1.94-3.45-1.94-3.45
	c-0.18-0.38-0.21-0.38-0.33-0.38h-2.48l-0.2,0.27l0.3,0.55l1.29,2.25l2.03,3.56v4.47c0,0.54,0.09,0.63,0.41,0.63h1.78
	c0.33,0,0.4-0.09,0.4-0.63v-4.39l3.37-5.89l0.31-0.55l-0.2-0.27"/>
<path class="st1" d="M378.47,151.08l-1.29,1.04l-0.92,0.48c-0.9,0.38-1.96,0.58-3.18,0.7c-1.83,0.17-4.62,0.25-6.79,0
	c-2.16-0.25-3.86-0.71-3.86-0.71l-0.19-0.05l-0.02-12.21h5.81c2.99,0,4.15,2.52,4.15,2.52v-9c0,0-0.98,0.41-3.03,0.41h-6.94v-10.42
	h6.63c3.96,0,5.7,2.6,5.7,2.6v-9.08c0,0-0.32,0.3-1.53,0.3h-27.37c3.3,1.49,3.18,5.7,3.18,5.7l0.07,30.49c0,0,0,0.36-0.12,0.91
	l-0.05,0.23l-0.23,0.8c-0.11,0.33-0.25,0.68-0.44,1.03c-0.18,0.35-0.4,0.7-0.67,1.05l-0.16,0.21l-0.47,0.46
	c-0.82-0.54-1.91-1.39-2.57-2.45c-0.84-1.38-1.37-2.2-1.7-2.97l-15.03-35.49H309.5c0,0,3.91,1.66,2.72,5.12l-12.06,30.1
	l-14.68-20.34c0,0,11.57-3.14,11.57-13.37c0-7.57-7.82-11.56-9.69-12.19c-1.24-0.41-4.11-1.32-9.02-1.32h-30.84
	c3.97,2.01,3.99,6.08,3.99,6.08l0.03,41.07c0,0-0.03,1.41-0.84,2.98c-0.22,0.42-0.48,0.85-0.82,1.27c-0.56,0.68-1.29,1.34-2.32,1.94
	l-0.26,0.18l-0.04,0.03h25.91l-0.22-0.2c-1.04-0.63-1.71-1.29-2.25-1.95c-0.35-0.42-0.61-0.84-0.83-1.27
	c-0.81-1.57-0.84-2.98-0.84-2.98v-17.06l11.74,18.47c0.67,1.05,1.47,2,2.39,2.83h0c1.11,1.07,2.9,1.75,3.99,1.96
	c0.59,0.11,1.1,0.18,1.61,0.18h22.06c0,0-2.65-1.12-2.92-3.45c0-0.63,0.13-1.32,0.23-1.76l3.56-8.48h13.14l0.38,0.84
	c1.6,3.73,2.93,6.87,3.23,7.73c1.2,3.46-2.72,5.11-2.72,5.11l52.45,0.02l2.32-7.52l0.96-3.38
	C380.57,149.38,378.47,151.08,378.47,151.08 M268.84,131.94V113.3h1.97c3.54,0,5.76,1.85,5.76,1.85c2.82,2.54,2.79,4.99,2.82,7.02
	C279.49,126.83,274.23,131.68,268.84,131.94 M312.82,140.91l5.04-12.88h0.09l2.96,7.39l2.24,5.48L312.82,140.91z"/>
<path class="st1" d="M383.18,122.46v-2h1.32c0.68,0,1.41,0.15,1.41,0.95c0,1-0.74,1.05-1.57,1.05H383.18 M383.18,123.29h1.11
	l1.7,2.8h1.09l-1.84-2.85c0.94-0.11,1.68-0.61,1.68-1.78c0-1.27-0.76-1.82-2.27-1.82h-2.46v6.45h0.98V123.29z M384.35,128.46
	c3.06,0,5.65-2.37,5.65-5.61c0-3.21-2.59-5.59-5.65-5.59c-3.07,0-5.67,2.39-5.67,5.59C378.68,126.09,381.28,128.46,384.35,128.46
	 M379.8,122.84c0-2.65,2-4.68,4.54-4.68c2.53,0,4.54,2.03,4.54,4.68c0,2.7-2.01,4.68-4.54,4.68
	C381.8,127.52,379.8,125.54,379.8,122.84"/>
</svg>
